<svg viewBox="2.115 59.75 468.74 161.687" width="468.74" height="161.687" xmlns="http://www.w3.org/2000/svg">
  <defs></defs>
  <path d="M 318.026 121.528 C 317.991 111.816 314.643 102.409 308.534 94.861 C 310.607 86.231 309.959 77.167 306.681 68.921 C 306.032 67.331 304.713 66.12 303.073 65.612 C 300.756 64.82 291.992 63.33 274.125 74.91 C 266.441 72.882 258.513 71.926 250.566 72.065 C 242.61 71.921 234.672 72.882 226.979 74.91 C 208.648 63.066 199.121 64.985 197.202 65.547 C 195.558 66.076 194.233 67.312 193.595 68.921 C 190.312 77.142 189.639 86.18 191.677 94.795 C 185.369 102.304 182.006 111.851 182.215 121.657 C 182.215 158.249 203.157 169.301 222.345 173.207 C 221.364 175.613 220.685 178.14 220.327 180.716 C 220.297 180.99 220.297 181.269 220.327 181.543 L 220.327 191.668 C 202.858 193.122 199.121 182.899 198.758 181.743 C 198.673 181.469 198.572 181.204 198.459 180.95 C 195.085 174.064 189.145 168.778 181.916 166.227 C 177.685 164.811 173.516 168.504 174.407 172.873 C 174.821 174.901 176.281 176.555 178.244 177.208 C 182.25 178.653 185.593 181.513 187.641 185.25 C 189.958 192.759 199.419 204.637 220.262 203.312 L 220.262 212.844 C 220.262 217.298 225.09 220.084 228.947 217.856 C 230.741 216.82 231.841 214.911 231.841 212.844 L 231.841 181.971 C 232.28 178.603 233.75 175.449 236.042 172.943 C 239.281 169.913 238.02 164.517 233.785 163.232 C 233.441 163.127 233.093 163.057 232.734 163.018 C 212.554 160.666 193.894 154.014 193.894 121.427 C 193.62 113.476 196.694 105.773 202.365 100.186 C 203.899 98.533 204.407 96.171 203.685 94.033 C 201.737 88.368 201.612 82.239 203.321 76.5 C 210.427 78.104 217.098 81.228 222.873 85.662 C 224.383 86.659 226.256 86.913 227.971 86.355 C 235.32 84.123 242.988 83.082 250.666 83.281 C 258.34 83.082 265.992 84.123 273.332 86.355 C 275.046 86.919 276.924 86.664 278.424 85.662 C 283.99 81.397 290.362 78.303 297.153 76.564 C 298.838 82.369 298.688 88.552 296.72 94.263 C 296.062 96.206 296.492 98.349 297.846 99.888 C 303.327 105.738 306.426 113.416 306.546 121.427 C 306.546 153.949 286.929 160.7 267.707 163.018 C 263.302 163.506 261.08 168.578 263.706 172.151 C 264.049 172.62 264.458 173.028 264.926 173.371 C 266.979 174.926 269.36 179.296 269.36 186.605 L 269.36 212.809 C 269.36 217.264 274.189 220.049 278.046 217.826 C 279.839 216.79 280.94 214.877 280.94 212.809 L 280.94 186.605 C 281 181.996 280.159 177.422 278.459 173.138 C 294.01 169.828 318.026 159.609 318.026 121.528 Z" style="" transform="matrix(0.9999999999999999, 0, 0, 0.9999999999999999, -5.684341886080802e-14, 0)"></path>
  <path d="M 459.547 157.361 L 457.038 123.882 C 462.097 122.175 465.78 117.427 465.78 111.793 C 465.78 104.727 460.037 98.984 452.976 98.984 C 451.753 98.984 450.594 99.204 449.476 99.526 L 440.643 80.37 C 442.319 78.2 443.368 75.512 443.368 72.56 C 443.368 65.493 437.62 59.75 430.552 59.75 C 423.986 59.75 418.617 64.729 417.884 71.106 L 377.228 75.533 C 375.331 70.332 370.383 66.591 364.533 66.591 C 357.05 66.591 350.959 72.672 350.959 80.149 C 350.959 84.281 352.851 87.933 355.771 90.424 L 348.049 107.81 C 347.539 107.746 347.037 107.652 346.512 107.652 C 339.444 107.652 333.695 113.401 333.695 120.468 C 333.695 126.98 338.601 132.32 344.909 133.12 L 344.909 153.151 C 338.601 153.947 333.695 159.279 333.695 165.792 C 333.695 172.858 339.444 178.609 346.512 178.609 C 348.771 178.609 350.863 177.971 352.708 176.939 L 379.003 184.816 C 378.703 185.907 378.488 187.03 378.488 188.221 C 378.488 195.282 384.236 201.031 391.309 201.031 C 395.883 201.031 399.872 198.602 402.143 194.982 L 425.219 200.567 C 424.845 201.768 424.582 203.022 424.582 204.351 C 424.582 211.413 430.331 217.162 437.397 217.162 C 444.459 217.162 450.203 211.413 450.203 204.351 C 450.203 200.572 448.532 197.21 445.935 194.866 L 455.989 182.629 C 456.658 182.741 457.344 182.834 458.045 182.834 C 465.106 182.834 470.855 177.086 470.855 170.019 C 470.85 163.474 465.891 158.115 459.547 157.361 Z M 456.327 157.387 C 453.017 157.841 450.135 159.532 448.127 162.004 L 430.257 153.636 C 430.326 153.108 430.421 152.592 430.421 152.049 C 430.421 147.986 428.482 144.408 425.53 142.058 L 446.035 122.538 C 448.038 123.835 450.415 124.61 452.976 124.61 C 453.276 124.61 453.566 124.542 453.861 124.52 L 456.327 157.387 Z M 417.605 161.65 C 412.308 161.65 407.999 157.34 407.999 152.049 C 407.999 146.759 412.308 142.448 417.605 142.448 C 422.895 142.448 427.206 146.759 427.206 152.049 C 427.206 157.34 422.9 161.65 417.605 161.65 Z M 404.915 150.795 L 359.11 163.732 C 358.694 161.156 357.514 158.842 355.796 157.018 L 391.003 124.958 C 393.279 127.012 396.257 128.299 399.556 128.299 C 400.294 128.299 401.011 128.203 401.722 128.083 L 410.042 141.763 C 407.191 143.86 405.283 147.09 404.915 150.795 Z M 359.185 121.854 L 386.924 117.338 C 387.204 119.245 387.863 121.016 388.88 122.555 L 353.283 154.969 C 351.749 154.004 349.994 153.388 348.118 153.151 L 348.118 133.125 C 353.962 132.377 358.536 127.729 359.185 121.854 Z M 399.556 105.881 C 404.846 105.881 409.157 110.186 409.157 115.482 C 409.157 120.779 404.846 125.09 399.556 125.09 C 394.254 125.09 389.945 120.779 389.945 115.482 C 389.95 110.186 394.254 105.881 399.556 105.881 Z M 412.22 116.926 L 440.338 113.58 C 440.707 116.215 441.861 118.576 443.579 120.446 L 422.706 140.308 C 421.146 139.628 419.423 139.239 417.61 139.239 C 415.925 139.239 414.312 139.586 412.836 140.182 L 404.884 127.103 C 408.867 125.269 411.702 121.453 412.22 116.926 Z M 462.566 111.793 C 462.566 117.09 458.26 121.401 452.97 121.401 C 447.674 121.401 443.363 117.09 443.363 111.793 C 443.363 106.498 447.674 102.192 452.97 102.192 C 458.26 102.192 462.566 106.498 462.566 111.793 Z M 440.302 110.35 L 412.188 113.691 C 411.792 110.892 410.532 108.364 408.63 106.446 L 426.743 84.728 C 427.949 85.114 429.214 85.377 430.552 85.377 C 433.435 85.377 436.07 84.386 438.215 82.768 L 446.526 100.786 C 443.131 102.782 440.765 106.266 440.302 110.35 Z M 430.552 62.959 C 435.843 62.959 440.154 67.27 440.154 72.56 C 440.154 77.856 435.843 82.167 430.552 82.167 C 425.257 82.167 420.946 77.862 420.946 72.56 C 420.941 67.27 425.251 62.959 430.552 62.959 Z M 417.911 74.332 C 418.442 78.126 420.603 81.382 423.702 83.358 L 406.07 104.511 C 404.151 103.372 401.943 102.672 399.556 102.672 C 397.163 102.672 394.944 103.372 393.026 104.516 L 375.873 87.537 C 377.265 85.409 378.087 82.874 378.087 80.149 C 378.087 79.648 377.993 79.169 377.94 78.684 L 417.911 74.332 Z M 354.168 80.155 C 354.168 74.447 358.816 69.799 364.528 69.799 C 370.236 69.799 374.883 74.447 374.883 80.155 C 374.883 85.867 370.236 90.515 364.528 90.515 C 358.816 90.515 354.168 85.867 354.168 80.155 Z M 358.474 92.233 C 360.301 93.155 362.342 93.724 364.522 93.724 C 368.122 93.724 371.368 92.291 373.798 90.003 L 390.45 106.487 C 388.469 108.489 387.199 111.15 386.882 114.092 L 359.137 118.612 C 358.463 114.028 355.395 110.239 351.216 108.579 L 358.474 92.233 Z M 336.904 120.468 C 336.904 115.172 341.215 110.866 346.512 110.866 C 351.807 110.866 356.112 115.172 356.112 120.468 C 356.112 125.764 351.807 130.074 346.512 130.074 C 341.215 130.074 336.904 125.764 336.904 120.468 Z M 336.904 165.797 C 336.904 160.508 341.215 156.197 346.512 156.197 C 351.807 156.197 356.112 160.508 356.112 165.797 C 356.112 171.089 351.807 175.399 346.512 175.399 C 341.215 175.399 336.904 171.089 336.904 165.797 Z M 355.833 174.53 C 357.709 172.527 358.911 169.924 359.196 167.046 L 404.999 154.11 C 405.537 157.387 407.313 160.228 409.848 162.173 L 397.353 177.001 C 395.545 176.021 393.5 175.414 391.303 175.414 C 386.566 175.414 382.472 178.024 380.253 181.845 L 355.833 174.53 Z M 391.303 197.827 C 386.008 197.827 381.697 193.517 381.697 188.221 C 381.697 182.93 386.002 178.624 391.303 178.624 C 396.594 178.624 400.905 182.93 400.905 188.221 C 400.905 193.517 396.594 197.827 391.303 197.827 Z M 403.481 192.005 C 403.857 190.803 404.115 189.548 404.115 188.221 C 404.115 184.516 402.512 181.201 399.983 178.862 L 412.625 163.853 C 414.159 164.501 415.839 164.86 417.605 164.86 C 419.185 164.86 420.676 164.533 422.079 164.006 L 432.381 192.562 C 429.957 193.601 427.939 195.376 426.559 197.59 L 403.481 192.005 Z M 446.995 204.351 C 446.995 209.647 442.689 213.959 437.397 213.959 C 432.101 213.959 427.791 209.647 427.791 204.351 C 427.791 199.06 432.101 194.75 437.397 194.75 C 442.689 194.75 446.995 199.06 446.995 204.351 Z M 443.279 193.036 C 441.508 192.115 439.527 191.535 437.392 191.535 C 436.744 191.535 436.118 191.635 435.49 191.73 L 424.951 162.509 C 426.964 161.098 428.54 159.126 429.477 156.818 L 446.394 164.739 C 445.656 166.357 445.218 168.137 445.218 170.024 C 445.218 175.167 448.284 179.578 452.659 181.617 L 443.279 193.036 Z M 458.04 179.631 C 452.743 179.631 448.433 175.321 448.433 170.024 C 448.433 164.733 452.743 160.422 458.04 160.422 C 463.33 160.422 467.641 164.733 467.641 170.024 C 467.641 175.321 463.33 179.631 458.04 179.631 Z" style="" transform="matrix(0.9999999999999999, 0, 0, 0.9999999999999999, -5.684341886080802e-14, 0)"></path>
  <path d="M 118.448 105.124 L 145.344 105.124 C 149.633 105.124 153.527 106.871 156.358 109.692 C 159.181 112.514 160.932 116.417 160.932 120.702 L 160.932 163.393 C 160.932 167.682 159.181 171.575 156.358 174.407 C 153.537 177.229 149.633 178.981 145.344 178.981 L 118.448 178.981 L 118.448 205.849 C 118.448 210.139 116.703 214.037 113.88 216.87 C 111.059 219.686 107.155 221.437 102.866 221.437 L 60.18 221.437 C 55.886 221.437 51.992 219.686 49.165 216.87 C 46.344 214.043 44.593 210.139 44.593 205.849 L 44.593 178.981 L 17.702 178.981 C 13.408 178.981 9.516 177.229 6.687 174.407 C 3.866 171.586 2.115 167.682 2.115 163.393 L 2.115 120.702 C 2.115 116.417 3.866 112.519 6.687 109.692 C 9.51 106.871 13.408 105.124 17.702 105.124 L 44.593 105.124 L 44.593 78.25 C 44.593 73.956 46.344 70.064 49.165 67.235 C 51.988 64.414 55.886 62.663 60.18 62.663 L 102.866 62.663 C 107.155 62.663 111.049 64.414 113.88 67.235 C 116.703 70.058 118.448 73.956 118.448 78.25 L 118.448 105.124 Z M 81.518 178.985 C 82.54 178.985 83.375 178.15 83.375 177.128 C 83.375 176.11 82.54 175.274 81.518 175.274 C 80.501 175.274 79.666 176.11 79.666 177.128 C 79.666 178.15 80.501 178.985 81.518 178.985 Z M 81.518 108.841 C 82.54 108.841 83.375 108.006 83.375 106.988 C 83.375 105.966 82.54 105.13 81.518 105.13 C 80.501 105.13 79.666 105.966 79.666 106.988 C 79.666 108.006 80.501 108.841 81.518 108.841 Z M 24.122 124.508 L 58.885 124.508 C 59.907 124.508 60.732 123.673 60.732 122.655 C 60.732 121.633 59.907 120.798 58.885 120.798 L 24.122 120.808 C 23.094 120.808 22.265 121.644 22.265 122.661 C 22.265 123.684 23.094 124.513 24.122 124.513 L 24.122 124.508 Z M 104.141 163.313 L 138.908 163.313 C 139.931 163.313 140.761 162.478 140.761 161.46 C 140.761 160.438 139.931 159.602 138.908 159.602 L 104.141 159.602 C 103.119 159.602 102.294 160.438 102.294 161.46 C 102.294 162.478 103.119 163.313 104.141 163.313 Z M 102.396 197.014 C 100.168 197.014 98.16 197.915 96.698 199.381 C 95.231 200.843 94.336 202.857 94.336 205.078 C 94.336 207.306 95.231 209.314 96.698 210.77 C 98.166 212.243 100.173 213.137 102.396 213.137 C 104.623 213.137 106.63 212.243 108.093 210.77 C 109.559 209.309 110.454 207.295 110.454 205.078 C 110.454 202.851 109.559 200.838 108.093 199.381 C 106.626 197.915 104.613 197.014 102.396 197.014 Z M 105.469 202.011 C 104.671 201.224 103.595 200.746 102.396 200.746 C 101.201 200.746 100.103 201.234 99.327 202.011 C 98.53 202.803 98.053 203.885 98.053 205.084 C 98.053 206.283 98.545 207.376 99.327 208.158 C 100.103 208.944 101.201 209.427 102.396 209.427 C 103.595 209.427 104.671 208.934 105.469 208.158 C 106.245 207.376 106.738 206.283 106.738 205.084 C 106.738 203.885 106.245 202.803 105.469 202.011 Z M 60.624 70.974 C 58.396 70.974 56.389 71.873 54.927 73.34 C 53.46 74.808 52.566 76.821 52.566 79.038 C 52.566 81.265 53.46 83.272 54.927 84.734 C 56.394 86.201 58.402 87.096 60.624 87.096 C 62.851 87.096 64.86 86.201 66.322 84.734 C 67.789 83.267 68.683 81.259 68.683 79.038 C 68.683 76.81 67.789 74.802 66.322 73.34 C 64.855 71.873 62.841 70.974 60.624 70.974 Z M 63.693 75.969 C 62.9 75.182 61.824 74.7 60.624 74.7 C 59.431 74.7 58.328 75.187 57.556 75.969 C 56.774 76.767 56.281 77.843 56.281 79.042 C 56.281 80.243 56.774 81.323 57.556 82.116 C 58.343 82.904 59.431 83.38 60.624 83.38 C 61.824 83.38 62.9 82.893 63.693 82.116 C 64.475 81.323 64.966 80.243 64.966 79.042 C 64.966 77.843 64.475 76.751 63.693 75.969 Z M 114.722 178.991 L 85.893 178.991 C 84.869 178.991 84.04 178.156 84.04 177.133 C 84.04 176.116 84.869 175.28 85.893 175.28 L 145.323 175.28 C 148.589 175.28 151.55 173.937 153.703 171.805 C 155.861 169.652 157.183 166.687 157.183 163.425 L 157.183 120.738 C 157.183 117.467 155.839 114.511 153.703 112.353 C 151.55 110.201 148.589 108.873 145.323 108.873 L 118.433 108.873 L 118.433 128.358 C 118.433 132.647 116.681 136.545 113.859 139.372 C 111.038 142.195 107.134 143.94 102.845 143.94 L 60.158 143.94 C 56.892 143.94 53.931 145.284 51.773 147.421 C 49.62 149.573 48.298 152.534 48.298 155.8 L 48.298 205.881 C 48.298 209.148 49.642 212.109 51.773 214.262 C 53.931 216.415 56.892 217.742 60.158 217.742 L 102.845 217.742 C 106.111 217.742 109.072 216.398 111.225 214.262 C 113.383 212.109 114.705 209.148 114.705 205.881 L 114.705 179.007 L 114.722 178.991 Z M 44.582 175.259 L 44.582 155.785 C 44.582 151.496 46.328 147.598 49.15 144.765 C 51.971 141.948 55.875 140.197 60.164 140.197 L 102.851 140.197 C 106.122 140.197 109.078 138.853 111.23 136.717 C 113.389 134.564 114.711 131.608 114.711 128.337 L 114.711 78.245 C 114.711 74.978 113.372 72.017 111.23 69.865 C 109.1 67.707 106.122 66.385 102.851 66.385 L 60.164 66.385 C 56.892 66.385 53.937 67.723 51.779 69.865 C 49.626 71.996 48.309 74.978 48.309 78.245 L 48.309 105.12 L 77.138 105.12 C 78.161 105.12 78.99 105.949 78.99 106.972 C 78.99 107.995 78.161 108.82 77.138 108.82 L 17.708 108.82 C 14.447 108.82 11.48 110.164 9.327 112.3 C 7.175 114.436 5.852 117.414 5.852 120.685 L 5.852 163.371 C 5.852 166.638 7.197 169.599 9.327 171.757 C 11.48 173.91 14.447 175.227 17.708 175.227 L 44.604 175.227 L 44.582 175.259 Z" fill-rule="evenodd" style="" transform="matrix(0.9999999999999999, 0, 0, 0.9999999999999999, -5.684341886080802e-14, 0)"></path>
</svg>
